<svg xmlns="http://www.w3.org/2000/svg" viewBox="0 0 900 250" width="900" height="250"><clipPath id="a0"><rect x="0" y="0" width="276" height="250" rx="3"></rect></clipPath><g clip-path="url(#a0)"><rect x="0" y="0" width="276" height="250" rx="3" fill="#ffffff"></rect><rect x="0" y="0" width="276" height="34" rx="0" fill="#2D5BFF"></rect><rect x="14" y="11" width="16" height="16" rx="1.5" fill="rgba(255,255,255,0.92)"></rect><rect x="204" y="14" width="18" height="5" rx="3" fill="rgba(255,255,255,0.55)"></rect><rect x="226" y="14" width="18" height="5" rx="3" fill="rgba(255,255,255,0.55)"></rect><rect x="248" y="14" width="14" height="5" rx="3" fill="rgba(255,255,255,0.55)"></rect><rect x="24" y="52" width="150.48000000000002" height="11" rx="4" fill="#16181D"></rect><rect x="24" y="70" width="100.32000000000001" height="6" rx="3" fill="#c2c6d2"></rect><rect x="24" y="86" width="30" height="15" rx="7" fill="#2D5BFF"></rect><rect x="60" y="86" width="30" height="15" rx="7" fill="none" stroke="#e3e5ee"></rect><rect x="96" y="86" width="30" height="15" rx="7" fill="none" stroke="#e3e5ee"></rect><rect x="24" y="112" width="109.5" height="44" rx="2.0999999999999996" fill="#f5f7ff" stroke="#e3e5ee"></rect><rect x="34" y="124" width="54.75" height="6" rx="3" fill="#2D5BFF"></rect><rect x="34" y="138" width="76.64999999999999" height="5" rx="3" fill="#c2c6d2"></rect><rect x="142.5" y="112" width="109.5" height="44" rx="2.0999999999999996" fill="#f5f7ff" stroke="#e3e5ee"></rect><rect x="152.5" y="124" width="54.75" height="6" rx="3" fill="#2D5BFF"></rect><rect x="152.5" y="138" width="76.64999999999999" height="5" rx="3" fill="#c2c6d2"></rect><rect x="24" y="166" width="162" height="24" rx="1.7999999999999998" fill="none" stroke="#e3e5ee"></rect><rect x="194" y="166" width="58" height="24" rx="1.7999999999999998" fill="#2D5BFF"></rect><line x1="24" y1="206" x2="252" y2="206" stroke="#e3e5ee"></line><rect x="24" y="216" width="40" height="4" rx="2" fill="#c2c6d2"></rect><rect x="24" y="226" width="32" height="4" rx="2" fill="#c2c6d2"></rect><rect x="24" y="236" width="36" height="4" rx="2" fill="#c2c6d2"></rect><rect x="78" y="216" width="40" height="4" rx="2" fill="#c2c6d2"></rect><rect x="78" y="226" width="32" height="4" rx="2" fill="#c2c6d2"></rect><rect x="78" y="236" width="36" height="4" rx="2" fill="#c2c6d2"></rect><rect x="132" y="216" width="40" height="4" rx="2" fill="#c2c6d2"></rect><rect x="132" y="226" width="32" height="4" rx="2" fill="#c2c6d2"></rect><rect x="132" y="236" width="36" height="4" rx="2" fill="#c2c6d2"></rect></g><rect x="0" y="0" width="276" height="250" rx="3" fill="none" stroke="#e3e5ee"></rect><clipPath id="a312"><rect x="312" y="0" width="276" height="250" rx="15"></rect></clipPath><g clip-path="url(#a312)"><rect x="312" y="0" width="276" height="250" rx="15" fill="#fffdf9"></rect><rect x="312" y="0" width="276" height="34" rx="0" fill="#1F8A5B"></rect><rect x="326" y="11" width="16" height="16" rx="7.5" fill="rgba(255,255,255,0.92)"></rect><rect x="516" y="14" width="18" height="5" rx="3" fill="rgba(255,255,255,0.55)"></rect><rect x="538" y="14" width="18" height="5" rx="3" fill="rgba(255,255,255,0.55)"></rect><rect x="560" y="14" width="14" height="5" rx="3" fill="rgba(255,255,255,0.55)"></rect><rect x="336" y="52" width="150.48000000000002" height="11" rx="4" fill="#23201b"></rect><rect x="336" y="70" width="100.32000000000001" height="6" rx="3" fill="#cfc7b6"></rect><rect x="336" y="86" width="30" height="15" rx="7" fill="#1F8A5B"></rect><rect x="372" y="86" width="30" height="15" rx="7" fill="none" stroke="#e7e0d2"></rect><rect x="408" y="86" width="30" height="15" rx="7" fill="none" stroke="#e7e0d2"></rect><rect x="336" y="112" width="109.5" height="44" rx="10.5" fill="#f4f1e9" stroke="#e7e0d2"></rect><rect x="346" y="124" width="54.75" height="6" rx="3" fill="#1F8A5B"></rect><rect x="346" y="138" width="76.64999999999999" height="5" rx="3" fill="#cfc7b6"></rect><rect x="454.5" y="112" width="109.5" height="44" rx="10.5" fill="#f4f1e9" stroke="#e7e0d2"></rect><rect x="464.5" y="124" width="54.75" height="6" rx="3" fill="#1F8A5B"></rect><rect x="464.5" y="138" width="76.64999999999999" height="5" rx="3" fill="#cfc7b6"></rect><rect x="336" y="166" width="162" height="24" rx="9" fill="none" stroke="#e7e0d2"></rect><rect x="506" y="166" width="58" height="24" rx="9" fill="#1F8A5B"></rect><line x1="336" y1="206" x2="564" y2="206" stroke="#e7e0d2"></line><rect x="336" y="216" width="40" height="4" rx="2" fill="#cfc7b6"></rect><rect x="336" y="226" width="32" height="4" rx="2" fill="#cfc7b6"></rect><rect x="336" y="236" width="36" height="4" rx="2" fill="#cfc7b6"></rect><rect x="390" y="216" width="40" height="4" rx="2" fill="#cfc7b6"></rect><rect x="390" y="226" width="32" height="4" rx="2" fill="#cfc7b6"></rect><rect x="390" y="236" width="36" height="4" rx="2" fill="#cfc7b6"></rect><rect x="444" y="216" width="40" height="4" rx="2" fill="#cfc7b6"></rect><rect x="444" y="226" width="32" height="4" rx="2" fill="#cfc7b6"></rect><rect x="444" y="236" width="36" height="4" rx="2" fill="#cfc7b6"></rect></g><rect x="312" y="0" width="276" height="250" rx="15" fill="none" stroke="#e7e0d2"></rect><clipPath id="a624"><rect x="624" y="0" width="276" height="250" rx="8"></rect></clipPath><g clip-path="url(#a624)"><rect x="624" y="0" width="276" height="250" rx="8" fill="#ffffff"></rect><rect x="624" y="0" width="276" height="34" rx="0" fill="#B5651D"></rect><rect x="638" y="11" width="16" height="16" rx="4" fill="rgba(255,255,255,0.92)"></rect><rect x="828" y="14" width="18" height="5" rx="3" fill="rgba(255,255,255,0.55)"></rect><rect x="850" y="14" width="18" height="5" rx="3" fill="rgba(255,255,255,0.55)"></rect><rect x="872" y="14" width="14" height="5" rx="3" fill="rgba(255,255,255,0.55)"></rect><rect x="648" y="52" width="150.48000000000002" height="11" rx="4" fill="#1d1a17"></rect><rect x="648" y="70" width="100.32000000000001" height="6" rx="3" fill="#cdc8c0"></rect><rect x="648" y="86" width="30" height="15" rx="7" fill="#B5651D"></rect><rect x="684" y="86" width="30" height="15" rx="7" fill="none" stroke="#e6e3df"></rect><rect x="720" y="86" width="30" height="15" rx="7" fill="none" stroke="#e6e3df"></rect><rect x="648" y="112" width="109.5" height="44" rx="5.6" fill="#f4f3f1" stroke="#e6e3df"></rect><rect x="658" y="124" width="54.75" height="6" rx="3" fill="#B5651D"></rect><rect x="658" y="138" width="76.64999999999999" height="5" rx="3" fill="#cdc8c0"></rect><rect x="766.5" y="112" width="109.5" height="44" rx="5.6" fill="#f4f3f1" stroke="#e6e3df"></rect><rect x="776.5" y="124" width="54.75" height="6" rx="3" fill="#B5651D"></rect><rect x="776.5" y="138" width="76.64999999999999" height="5" rx="3" fill="#cdc8c0"></rect><rect x="648" y="166" width="162" height="24" rx="4.8" fill="none" stroke="#e6e3df"></rect><rect x="818" y="166" width="58" height="24" rx="4.8" fill="#B5651D"></rect><line x1="648" y1="206" x2="876" y2="206" stroke="#e6e3df"></line><rect x="648" y="216" width="40" height="4" rx="2" fill="#cdc8c0"></rect><rect x="648" y="226" width="32" height="4" rx="2" fill="#cdc8c0"></rect><rect x="648" y="236" width="36" height="4" rx="2" fill="#cdc8c0"></rect><rect x="702" y="216" width="40" height="4" rx="2" fill="#cdc8c0"></rect><rect x="702" y="226" width="32" height="4" rx="2" fill="#cdc8c0"></rect><rect x="702" y="236" width="36" height="4" rx="2" fill="#cdc8c0"></rect><rect x="756" y="216" width="40" height="4" rx="2" fill="#cdc8c0"></rect><rect x="756" y="226" width="32" height="4" rx="2" fill="#cdc8c0"></rect><rect x="756" y="236" width="36" height="4" rx="2" fill="#cdc8c0"></rect></g><rect x="624" y="0" width="276" height="250" rx="8" fill="none" stroke="#e6e3df"></rect></svg>