<svg xmlns="http://www.w3.org/2000/svg" viewBox="0 0 900 250" width="900" height="250" font-family="sans-serif"><clipPath id="c0"><rect x="0" y="0" width="420" height="250" rx="10"></rect></clipPath><g clip-path="url(#c0)"><rect x="0" y="0" width="420" height="250" rx="10" fill="#ffffff"></rect><rect x="0" y="0" width="120" height="250" rx="0" fill="#138C8C"></rect><rect x="14" y="16" width="16" height="16" rx="4" fill="#ffffff"></rect><rect x="14" y="46" width="72" height="7" rx="3" fill="#ffffff"></rect><rect x="14" y="62" width="86" height="7" rx="3" fill="rgba(255,255,255,0.5)"></rect><rect x="14" y="78" width="80" height="7" rx="3" fill="rgba(255,255,255,0.5)"></rect><rect x="14" y="94" width="86" height="7" rx="3" fill="rgba(255,255,255,0.5)"></rect><rect x="14" y="222" width="70" height="7" rx="3" fill="rgba(255,255,255,0.5)"></rect><rect x="136" y="18" width="96" height="8" rx="3" fill="#138C8C"></rect><rect x="370" y="16" width="34" height="16" rx="4" fill="#138C8C"></rect><rect x="136" y="40" width="30" height="15" rx="7" fill="#138C8C"></rect><rect x="172" y="40" width="34" height="15" rx="7" fill="none" stroke="#e2e7e7"></rect><rect x="212" y="40" width="34" height="15" rx="7" fill="none" stroke="#e2e7e7"></rect><rect x="136" y="72" width="128" height="64" rx="6" fill="#f3f6f6" stroke="#e2e7e7"></rect><rect x="147" y="83" width="62" height="7" rx="3" fill="#138C8C"></rect><rect x="147" y="98" width="104" height="6" rx="3" fill="#cdd4d4"></rect><rect x="147" y="110" width="80" height="6" rx="3" fill="#cdd4d4"></rect><rect x="274" y="72" width="128" height="64" rx="6" fill="#f3f6f6" stroke="#e2e7e7"></rect><rect x="285" y="83" width="62" height="7" rx="3" fill="#138C8C"></rect><rect x="285" y="98" width="104" height="6" rx="3" fill="#cdd4d4"></rect><rect x="285" y="110" width="80" height="6" rx="3" fill="#cdd4d4"></rect><rect x="136" y="146" width="128" height="64" rx="6" fill="#f3f6f6" stroke="#e2e7e7"></rect><rect x="147" y="157" width="62" height="7" rx="3" fill="#138C8C"></rect><rect x="147" y="172" width="104" height="6" rx="3" fill="#cdd4d4"></rect><rect x="147" y="184" width="80" height="6" rx="3" fill="#cdd4d4"></rect><rect x="274" y="146" width="128" height="64" rx="6" fill="#f3f6f6" stroke="#e2e7e7"></rect><rect x="285" y="157" width="62" height="7" rx="3" fill="#138C8C"></rect><rect x="285" y="172" width="104" height="6" rx="3" fill="#cdd4d4"></rect><rect x="285" y="184" width="80" height="6" rx="3" fill="#cdd4d4"></rect></g><rect x="0" y="0" width="420" height="250" rx="10" fill="none" stroke="#e2e7e7"></rect><clipPath id="c480"><rect x="480" y="0" width="420" height="250" rx="10"></rect></clipPath><g clip-path="url(#c480)"><rect x="480" y="0" width="420" height="250" rx="10" fill="#0f1417"></rect><rect x="480" y="0" width="120" height="250" rx="0" fill="#0d2e2e"></rect><rect x="494" y="16" width="16" height="16" rx="4" fill="#ffffff"></rect><rect x="494" y="46" width="72" height="7" rx="3" fill="#ffffff"></rect><rect x="494" y="62" width="86" height="7" rx="3" fill="rgba(255,255,255,0.42)"></rect><rect x="494" y="78" width="80" height="7" rx="3" fill="rgba(255,255,255,0.42)"></rect><rect x="494" y="94" width="86" height="7" rx="3" fill="rgba(255,255,255,0.42)"></rect><rect x="494" y="222" width="70" height="7" rx="3" fill="rgba(255,255,255,0.42)"></rect><rect x="616" y="18" width="96" height="8" rx="3" fill="#34b3b3"></rect><rect x="850" y="16" width="34" height="16" rx="4" fill="#34b3b3"></rect><rect x="616" y="40" width="30" height="15" rx="7" fill="#34b3b3"></rect><rect x="652" y="40" width="34" height="15" rx="7" fill="none" stroke="#26302f"></rect><rect x="692" y="40" width="34" height="15" rx="7" fill="none" stroke="#26302f"></rect><rect x="616" y="72" width="128" height="64" rx="6" fill="#161d20" stroke="#26302f"></rect><rect x="627" y="83" width="62" height="7" rx="3" fill="#34b3b3"></rect><rect x="627" y="98" width="104" height="6" rx="3" fill="#39474a"></rect><rect x="627" y="110" width="80" height="6" rx="3" fill="#39474a"></rect><rect x="754" y="72" width="128" height="64" rx="6" fill="#161d20" stroke="#26302f"></rect><rect x="765" y="83" width="62" height="7" rx="3" fill="#34b3b3"></rect><rect x="765" y="98" width="104" height="6" rx="3" fill="#39474a"></rect><rect x="765" y="110" width="80" height="6" rx="3" fill="#39474a"></rect><rect x="616" y="146" width="128" height="64" rx="6" fill="#161d20" stroke="#26302f"></rect><rect x="627" y="157" width="62" height="7" rx="3" fill="#34b3b3"></rect><rect x="627" y="172" width="104" height="6" rx="3" fill="#39474a"></rect><rect x="627" y="184" width="80" height="6" rx="3" fill="#39474a"></rect><rect x="754" y="146" width="128" height="64" rx="6" fill="#161d20" stroke="#26302f"></rect><rect x="765" y="157" width="62" height="7" rx="3" fill="#34b3b3"></rect><rect x="765" y="172" width="104" height="6" rx="3" fill="#39474a"></rect><rect x="765" y="184" width="80" height="6" rx="3" fill="#39474a"></rect></g><rect x="480" y="0" width="420" height="250" rx="10" fill="none" stroke="#26302f"></rect></svg>