<svg xmlns="http://www.w3.org/2000/svg" viewBox="0 0 900 330" width="900" height="330"><clipPath id="p0_0"><rect x="0" y="0" width="434" height="150" rx="9"></rect></clipPath><g clip-path="url(#p0_0)"><rect x="0" y="0" width="434" height="150" rx="9" fill="#ffffff"></rect><rect x="0" y="0" width="62" height="150" rx="0" fill="#138C8C"></rect><rect x="13" y="14" width="15" height="15" rx="4" fill="#ffffff"></rect><rect x="13" y="40" width="34" height="6" rx="3" fill="#ffffff"></rect><rect x="13" y="52" width="40" height="6" rx="3" fill="rgba(255,255,255,0.5)"></rect><rect x="13" y="64" width="36" height="6" rx="3" fill="rgba(255,255,255,0.5)"></rect><rect x="78" y="16" width="70" height="7" rx="3" fill="#9aa8a8"></rect><rect x="78" y="38" width="142.79999999999998" height="8" rx="3" fill="#8d9698"></rect><rect x="394" y="39" width="24" height="6" rx="3" fill="#c4cbcb"></rect><rect x="78" y="62" width="115.60000000000001" height="8" rx="3" fill="#8d9698"></rect><rect x="394" y="63" width="24" height="6" rx="3" fill="#c4cbcb"></rect><rect x="78" y="86" width="129.2" height="8" rx="3" fill="#8d9698"></rect><rect x="394" y="87" width="24" height="6" rx="3" fill="#c4cbcb"></rect><rect x="78" y="110" width="102" height="8" rx="3" fill="#8d9698"></rect><rect x="394" y="111" width="24" height="6" rx="3" fill="#c4cbcb"></rect><rect x="78" y="134" width="156.4" height="8" rx="3" fill="#b9c0c0"></rect><rect x="394" y="135" width="24" height="6" rx="3" fill="#c4cbcb"></rect></g><rect x="0" y="0" width="434" height="150" rx="9" fill="none" stroke="#e2e7e7"></rect><clipPath id="p466_0"><rect x="466" y="0" width="434" height="150" rx="9"></rect></clipPath><g clip-path="url(#p466_0)"><rect x="466" y="0" width="434" height="150" rx="9" fill="#ffffff"></rect><rect x="466" y="0" width="62" height="150" rx="0" fill="#138C8C"></rect><rect x="479" y="14" width="15" height="15" rx="4" fill="#ffffff"></rect><rect x="479" y="40" width="34" height="6" rx="3" fill="#ffffff"></rect><rect x="479" y="52" width="40" height="6" rx="3" fill="rgba(255,255,255,0.5)"></rect><rect x="479" y="64" width="36" height="6" rx="3" fill="rgba(255,255,255,0.5)"></rect><rect x="544" y="16" width="70" height="7" rx="3" fill="#9aa8a8"></rect><rect x="544" y="38" width="7" height="7" rx="2" fill="#138C8C"></rect><rect x="557" y="38" width="163.5" height="8" rx="3" fill="#8d9698"></rect><rect x="860" y="39" width="24" height="6" rx="3" fill="#c4cbcb"></rect><rect x="560" y="62" width="7" height="7" rx="2" fill="#138C8C"></rect><rect x="573" y="62" width="143.06" height="8" rx="3" fill="#8d9698"></rect><rect x="860" y="63" width="24" height="6" rx="3" fill="#c4cbcb"></rect><rect x="576" y="86" width="7" height="7" rx="2" fill="none" stroke="#9aa8a8"></rect><rect x="589" y="86" width="118" height="8" rx="3" fill="#b9c0c0"></rect><rect x="860" y="87" width="24" height="6" rx="3" fill="#c4cbcb"></rect><rect x="576" y="110" width="7" height="7" rx="2" fill="none" stroke="#9aa8a8"></rect><rect x="589" y="110" width="106.2" height="8" rx="3" fill="#b9c0c0"></rect><rect x="860" y="111" width="24" height="6" rx="3" fill="#c4cbcb"></rect><rect x="560" y="134" width="7" height="7" rx="2" fill="none" stroke="#9aa8a8"></rect><rect x="573" y="134" width="136.84" height="8" rx="3" fill="#b9c0c0"></rect><rect x="860" y="135" width="24" height="6" rx="3" fill="#c4cbcb"></rect></g><rect x="466" y="0" width="434" height="150" rx="9" fill="none" stroke="#e2e7e7"></rect><clipPath id="p0_180"><rect x="0" y="180" width="434" height="150" rx="9"></rect></clipPath><g clip-path="url(#p0_180)"><rect x="0" y="180" width="434" height="150" rx="9" fill="#ffffff"></rect><rect x="0" y="180" width="62" height="150" rx="0" fill="#138C8C"></rect><rect x="13" y="194" width="15" height="15" rx="4" fill="#ffffff"></rect><rect x="13" y="220" width="34" height="6" rx="3" fill="#ffffff"></rect><rect x="13" y="232" width="40" height="6" rx="3" fill="rgba(255,255,255,0.5)"></rect><rect x="13" y="244" width="36" height="6" rx="3" fill="rgba(255,255,255,0.5)"></rect><rect x="78" y="196" width="70" height="7" rx="3" fill="#9aa8a8"></rect><rect x="78" y="218" width="149.6" height="8" rx="3" fill="#8d9698"></rect><rect x="372" y="216" width="46" height="13" rx="7" fill="#138C8C"></rect><rect x="100" y="242" width="159" height="8" rx="3" fill="#b9c0c0"></rect><rect x="380" y="240" width="38" height="13" rx="7" fill="none" stroke="#138C8C"></rect><rect x="100" y="266" width="146.28" height="8" rx="3" fill="#b9c0c0"></rect><rect x="380" y="264" width="38" height="13" rx="7" fill="none" stroke="#138C8C"></rect></g><rect x="0" y="180" width="434" height="150" rx="9" fill="none" stroke="#e2e7e7"></rect><clipPath id="p466_180"><rect x="466" y="180" width="434" height="150" rx="9"></rect></clipPath><g clip-path="url(#p466_180)"><rect x="466" y="180" width="434" height="150" rx="9" fill="#ffffff"></rect><rect x="466" y="180" width="62" height="150" rx="0" fill="#138C8C"></rect><rect x="479" y="194" width="15" height="15" rx="4" fill="#ffffff"></rect><rect x="479" y="220" width="34" height="6" rx="3" fill="#ffffff"></rect><rect x="479" y="232" width="40" height="6" rx="3" fill="rgba(255,255,255,0.5)"></rect><rect x="479" y="244" width="36" height="6" rx="3" fill="rgba(255,255,255,0.5)"></rect><rect x="544" y="196" width="70" height="7" rx="3" fill="#9aa8a8"></rect><rect x="544" y="218" width="156.4" height="8" rx="3" fill="#8d9698"></rect><rect x="846" y="216" width="38" height="13" rx="7" fill="#138C8C"></rect><rect x="544" y="242" width="136" height="8" rx="3" fill="#8d9698"></rect><rect x="846" y="240" width="38" height="13" rx="7" fill="none" stroke="#138C8C"></rect><rect x="544" y="266" width="176.8" height="8" rx="3" fill="#8d9698"></rect><rect x="846" y="264" width="38" height="13" rx="7" fill="none" stroke="#138C8C"></rect></g><rect x="466" y="180" width="434" height="150" rx="9" fill="none" stroke="#e2e7e7"></rect></svg>